<svg id="Calque_1" xmlns="http://www.w3.org/2000/svg" viewBox="0 0 595.94 156.94"><defs><style>.cls-1{fill:#fff}.cls-2{fill:#1f3c88}.cls-4{fill:#f8b010}</style></defs><path class="cls-2" d="M159.23 77.29c0 43.9-35.72 79.62-79.62 79.62S0 121.19 0 77.29h27.72c0 28.62 23.28 51.9 51.9 51.9s51.9-23.28 51.9-51.9h27.72Z"/><path d="M79.57 119.95c23.52 0 42.66-19.14 42.66-42.66 0-10.86-4.09-20.78-10.8-28.32a129.318 129.318 0 0 0-19.9 27.12 129.844 129.844 0 0 0-11.97 30.22c-4.33-5.16-11-11.97-20.48-18.14-8.3-5.4-16.12-8.59-22.17-10.54.18 23.37 19.24 42.33 42.65 42.33Z" style="fill:#36b190"/><path class="cls-4" d="M132.26 22.77c.54.17 1.12-.13 1.29-.67s-.13-1.12-.67-1.29-1.12.13-1.29.67.13 1.12.67 1.29ZM126.4 15.37c-.59-.19-1.23.14-1.41.73s.14 1.23.73 1.41c.59.19 1.23-.14 1.41-.73s-.14-1.23-.73-1.41ZM119.37 10.73c-.62-.2-1.27.15-1.47.76s.15 1.27.76 1.47 1.27-.15 1.47-.76-.15-1.27-.76-1.47ZM111.87 6.88c-.64-.2-1.32.15-1.52.79s.15 1.32.79 1.52 1.32-.15 1.52-.79-.15-1.32-.79-1.52ZM103.25 6.26c.66.21 1.37-.16 1.58-.82s-.16-1.37-.82-1.58-1.37.16-1.58.82.16 1.37.82 1.58ZM95.09 4.18c.68.22 1.41-.16 1.63-.85s-.16-1.41-.85-1.63c-.68-.22-1.41.16-1.63.85s.16 1.41.85 1.63ZM86.75 2.98c.71.22 1.46-.17 1.69-.87S88.27.65 87.57.42s-1.46.17-1.69.87.17 1.46.87 1.69ZM78.32 2.71a1.385 1.385 0 1 0 .84-2.639 1.385 1.385 0 0 0-.84 2.639ZM69.91 3.35c.75.24 1.56-.18 1.79-.93S71.52.86 70.77.63s-1.56.18-1.79.93.18 1.56.93 1.79ZM61.62 4.9c.78.25 1.6-.18 1.85-.96s-.18-1.6-.96-1.85-1.6.18-1.85.96.18 1.6.96 1.85ZM53.53 7.33c.8.25 1.65-.19 1.9-.99s-.19-1.65-.99-1.9-1.65.19-1.9.99.19 1.65.99 1.9ZM45.75 10.63a1.56 1.56 0 0 0 .95-2.97 1.56 1.56 0 0 0-.95 2.97ZM38.37 14.73c.84.27 1.74-.2 2.01-1.04s-.2-1.74-1.04-2.01-1.74.2-2.01 1.04.2 1.74 1.04 2.01ZM31.47 19.61c.87.28 1.79-.2 2.07-1.07s-.2-1.79-1.07-2.07c-.87-.28-1.79.2-2.07 1.07s.2 1.79 1.07 2.07ZM25.13 25.2a1.688 1.688 0 1 0 1.02-3.22 1.688 1.688 0 0 0-1.02 3.22Z"/><circle class="cls-4" cx="19.95" cy="29.79" r="1.73"/><path class="cls-4" d="M14.43 38.26c.93.3 1.93-.22 2.23-1.16s-.22-1.93-1.16-2.23-1.93.22-2.23 1.16.22 1.93 1.16 2.23ZM10.21 45.59c.96.3 1.98-.23 2.28-1.18s-.23-1.98-1.18-2.28-1.98.23-2.28 1.18.23 1.98 1.18 2.28Z"/><circle class="cls-4" cx="7.36" cy="51.56" r="1.86" transform="rotate(-72.39 7.356 51.557)"/><circle class="cls-4" cx="4.8" cy="59.58" r="2.13" transform="rotate(-72.39 4.8 59.58)"/><path class="cls-4" d="M5.25 68.51a2.24 2.24 0 1 0-4.27-1.35 2.24 2.24 0 0 0 4.27 1.35ZM9.34 70.08c1.18.37 2.43-.28 2.81-1.45s-.28-2.43-1.45-2.81c-1.18-.37-2.43.28-2.81 1.45-.37 1.18.28 2.43 1.45 2.81ZM11.2 61.77c1.12.35 2.31-.26 2.67-1.38s-.26-2.31-1.38-2.67-2.31.26-2.67 1.38.26 2.31 1.38 2.67ZM12.85 51.26c-.31.97.23 2.01 1.2 2.32.97.31 2.01-.23 2.32-1.2a1.85 1.85 0 0 0-1.2-2.32 1.85 1.85 0 0 0-2.32 1.2ZM20.01 44.81c.3-.95-.22-1.96-1.17-2.26s-1.96.22-2.26 1.17c-.3.95.22 1.96 1.17 2.26s1.96-.22 2.26-1.17ZM21.18 36.67c-.29.92.22 1.91 1.14 2.2.92.29 1.91-.22 2.2-1.14s-.22-1.91-1.14-2.2c-.92-.29-1.91.22-2.2 1.14ZM28.73 29.11c-.9-.29-1.86.21-2.14 1.11s.21 1.86 1.11 2.14c.9.29 1.86-.21 2.14-1.11.29-.9-.21-1.86-1.11-2.14ZM33.8 26.54c.87.28 1.81-.21 2.08-1.08s-.21-1.81-1.08-2.08c-.87-.28-1.81.21-2.08 1.08s.21 1.81 1.08 2.08ZM40.55 21.47c.85.27 1.75-.2 2.02-1.05s-.2-1.75-1.05-2.02-1.75.2-2.02 1.05.2 1.75 1.05 2.02ZM47.83 17.23c.82.26 1.7-.19 1.96-1.02s-.19-1.7-1.02-1.96c-.82-.26-1.7.19-1.96 1.02s.19 1.7 1.02 1.96ZM55.56 13.87c.8.25 1.65-.19 1.9-.99s-.19-1.65-.99-1.9-1.65.19-1.9.99.19 1.65.99 1.9ZM63.63 11.45c.77.25 1.6-.18 1.85-.96s-.18-1.6-.96-1.85-1.6.18-1.85.96.18 1.6.96 1.85ZM71.92 9.99a1.427 1.427 0 1 0 .86-2.72 1.427 1.427 0 0 0-.86 2.72Z"/><circle class="cls-4" cx="80.74" cy="8.22" r="1.37"/><path class="cls-4" d="M88.71 10.07c.7.22 1.44-.16 1.67-.86s-.16-1.44-.86-1.67c-.7-.22-1.44.16-1.67.86s.16 1.44.86 1.67ZM96.98 11.6c.67.21 1.39-.16 1.61-.83s-.16-1.39-.83-1.61c-.67-.21-1.39.16-1.61.83s.16 1.39.83 1.61Z"/><circle class="cls-4" cx="105.38" cy="12.91" r="1.23" transform="rotate(-72.39 105.38 12.915)"/><path class="cls-4" d="M113.4 15.23c-.62-.2-1.29.15-1.49.77s.15 1.29.77 1.49c.62.2 1.29-.15 1.49-.77s-.15-1.29-.77-1.49ZM120.58 19.61a1.138 1.138 0 1 0-.691 2.168 1.138 1.138 0 0 0 .691-2.168ZM126.55 26.85c.55.17 1.13-.13 1.3-.67s-.13-1.13-.67-1.3-1.13.13-1.3.67.13 1.13.67 1.3ZM14.84 67.26a2.24 2.24 0 0 0 1.45 2.8c1.17.37 2.42-.28 2.8-1.45s-.28-2.42-1.45-2.8a2.24 2.24 0 0 0-2.8 1.45ZM16.96 59.16a2.11 2.11 0 0 0 1.37 2.65c1.11.35 2.3-.26 2.65-1.37s-.26-2.3-1.37-2.65-2.3.26-2.65 1.37ZM22.57 50.24c-.96-.31-1.99.23-2.3 1.19s.23 1.99 1.19 2.3 1.99-.23 2.3-1.19-.23-1.99-1.19-2.3Z"/><circle class="cls-4" cx="26.05" cy="44.64" r="1.78"/><path class="cls-4" d="M31.53 36.24c-.91-.29-1.88.21-2.17 1.12s.21 1.88 1.12 2.17c.91.29 1.88-.21 2.17-1.12s-.21-1.88-1.12-2.17ZM36.31 33.44a1.674 1.674 0 1 0 1.01-3.192 1.674 1.674 0 0 0-1.01 3.192ZM42.87 28.16c.85.27 1.77-.2 2.04-1.06s-.2-1.77-1.06-2.04c-.85-.27-1.77.2-2.04 1.06s.2 1.77 1.06 2.04ZM49.03 21.8c-.26.83.19 1.71 1.02 1.97s1.71-.2 1.97-1.02-.19-1.71-1.02-1.97-1.71.19-1.97 1.02Z"/><circle class="cls-4" cx="58.2" cy="18.91" r="1.52"/><path class="cls-4" d="M64.84 16.13c-.24.77.18 1.6.95 1.84s1.6-.18 1.84-.95-.18-1.6-.95-1.84-1.6.18-1.84.95ZM74.94 13.95c-.74-.24-1.54.18-1.77.92s.18 1.54.92 1.77c.74.24 1.54-.18 1.77-.92s-.18-1.54-.92-1.77ZM82.48 16.42c.72.23 1.48-.17 1.71-.89s-.17-1.48-.89-1.71-1.48.17-1.71.89.17 1.48.89 1.71ZM90.82 17.29c.69.22 1.42-.16 1.64-.85s-.16-1.42-.85-1.64c-.69-.22-1.42.16-1.64.85s.16 1.42.85 1.64ZM98.98 19.25c.66.21 1.37-.16 1.58-.82s-.16-1.37-.82-1.58-1.37.16-1.58.82.16 1.37.82 1.58ZM107.54 19.94c-.63-.2-1.31.15-1.51.78s.15 1.31.78 1.51 1.31-.15 1.51-.78-.15-1.31-.78-1.51Z"/><circle class="cls-4" cx="114.52" cy="25.12" r="1.15"/><path class="cls-4" d="M121.59 29.08a1.045 1.045 0 0 0-.63 1.99 1.045 1.045 0 0 0 .63-1.99ZM26.04 68.6c.37-1.17-.28-2.41-1.44-2.78-1.17-.37-2.41.28-2.78 1.44-.37 1.17.28 2.41 1.44 2.78s2.41-.28 2.78-1.44Z"/><circle class="cls-4" cx="26.16" cy="59.88" r="2.09"/><path class="cls-4" d="M27.8 51.68c-.3.95.22 1.97 1.18 2.27.95.3 1.97-.22 2.27-1.18s-.22-1.97-1.18-2.27c-.95-.3-1.97.22-2.27 1.18ZM34.51 43.49c-.92-.29-1.91.22-2.2 1.14s.22 1.91 1.14 2.2c.92.29 1.91-.22 2.2-1.14s-.22-1.91-1.14-2.2ZM38.91 40.43c.89.28 1.84-.21 2.13-1.1a1.695 1.695 0 1 0-2.13 1.1ZM46.22 31.78a1.632 1.632 0 1 0-.99 3.11 1.632 1.632 0 0 0 .99-3.11ZM53.24 27.33c-.83-.26-1.72.2-1.98 1.03s.2 1.72 1.03 1.98 1.72-.2 1.98-1.03-.2-1.72-1.03-1.98ZM60.83 23.95c-.8-.25-1.65.19-1.91.99s.19 1.65.99 1.91 1.65-.19 1.91-.99-.19-1.65-.99-1.91ZM67.01 22.66c-.24.77.18 1.59.95 1.83s1.59-.18 1.83-.95-.18-1.59-.95-1.83-1.59.18-1.83.95ZM78.01 22.42c.23-.74-.17-1.53-.91-1.76s-1.53.17-1.76.91.17 1.53.91 1.76 1.53-.17 1.76-.91ZM85.44 20.84c-.71-.22-1.46.17-1.69.87s.17 1.46.87 1.69 1.46-.17 1.69-.87-.17-1.46-.87-1.69Z"/><circle class="cls-4" cx="93.28" cy="23.46" r="1.29"/><path class="cls-4" d="M101.62 24.81c-.65-.2-1.34.15-1.54.8s.15 1.34.8 1.54 1.34-.15 1.54-.8-.15-1.34-.8-1.54ZM109.12 28.51c-.62-.2-1.27.15-1.47.76s.15 1.27.76 1.47 1.27-.15 1.47-.76-.15-1.27-.76-1.47ZM115.99 33.32c-.56-.18-1.15.13-1.32.69s.13 1.15.69 1.32 1.15-.13 1.32-.69-.13-1.15-.69-1.32Z"/><path class="cls-2" d="m354.95 90.53-14.73 7.84c-2.32-4.75-5.2-7.13-8.63-7.13-1.64 0-3.04.54-4.2 1.62-1.16 1.08-1.74 2.47-1.74 4.16 0 2.96 3.43 5.89 10.3 8.79 9.45 4.07 15.82 7.82 19.09 11.25 3.27 3.43 4.91 8.05 4.91 13.86 0 7.45-2.75 13.68-8.24 18.69-5.34 4.75-11.78 7.13-19.33 7.13-12.94 0-22.1-6.31-27.49-18.93l15.21-7.05c2.11 3.7 3.72 6.05 4.83 7.05 2.17 2.01 4.75 3.01 7.76 3.01 6.02 0 9.03-2.75 9.03-8.24 0-3.17-2.32-6.13-6.97-8.87-1.8-.9-3.59-1.77-5.39-2.61-1.8-.84-3.62-1.72-5.47-2.61-5.18-2.53-8.82-5.07-10.93-7.6-2.69-3.22-4.04-7.37-4.04-12.44 0-6.71 2.3-12.25 6.89-16.64 4.7-4.38 10.4-6.57 17.11-6.57 9.87 0 17.22 5.1 22.02 15.29ZM479.05 76.99h116.9v77.93h-116.9z"/><path class="cls-1" d="m535.01 93.97 2.46-1.8 2.47 1.8-.94-2.91 2.5-1.8h-3.08l-.95-2.95-.94 2.95h-3.09l2.5 1.8-.93 2.91zM522.24 97.4l2.47-1.8 2.46 1.8-.94-2.91 2.51-1.8h-3.09l-.94-2.95-.95 2.95h-3.09l2.51 1.8-.94 2.91zM515.37 99.1l-.95 2.95h-3.09l2.51 1.8-.94 2.91 2.47-1.8 2.46 1.8-.94-2.91 2.51-1.8h-3.09l-.94-2.95zM511.94 117.71l2.47 1.8-.94-2.91 2.5-1.8h-3.08l-.95-2.95-.95 2.95h-3.08l2.5 1.8-.94 2.91 2.47-1.8zM516.31 127.58l-.94-2.94-.95 2.95-3.08-.01 2.5 1.8-.94 2.92 2.47-1.81 2.46 1.81-.93-2.92 2.5-1.8h-3.09zM525.67 136.94l-.95-2.94-.94 2.95-3.09-.01 2.51 1.8-.94 2.91 2.47-1.8 2.46 1.8-.93-2.91 2.5-1.8h-3.09zM538.42 140.33l-.95-2.95-.94 2.96-3.09-.01 2.51 1.8-.94 2.91 2.46-1.8 2.47 1.8-.94-2.91 2.51-1.8h-3.09zM551.17 136.94l-.95-2.94-.94 2.95-3.09-.01 2.5 1.8-.93 2.91 2.46-1.8 2.47 1.8-.94-2.91 2.51-1.8h-3.09zM560.53 127.58l-.95-2.94-.94 2.95-3.09-.01 2.51 1.8-.94 2.92 2.46-1.81 2.47 1.81-.94-2.92 2.5-1.8h-3.08zM567 114.76h-3.08l-.95-2.95-.94 2.96-3.09-.01 2.5 1.8-.93 2.91 2.46-1.8 2.47 1.8-.94-2.91 2.5-1.8zM557.12 106.72l2.46-1.8 2.47 1.8-.94-2.91 2.5-1.8h-3.08l-.95-2.95-.95 2.96-3.08-.01 2.51 1.8-.94 2.91zM550.26 89.74l-.94 2.95h-3.09l2.5 1.8-.94 2.91 2.47-1.8 2.47 1.8-.94-2.91 2.5-1.8h-3.09l-.94-2.95z"/><path class="cls-2" d="M223.73 132.25c-4.3 4.89-10.6 7.99-17.63 7.99-10.35 0-19.12-6.69-22.26-15.97h61.77c.46-2.45.72-4.97.72-7.55 0-22.22-18.01-40.22-40.22-40.22s-40.22 18.01-40.22 40.22 18.01 40.22 40.22 40.22c16.71 0 31.03-10.19 37.11-24.69h-19.48ZM206.1 93.19c10.35 0 19.12 6.69 22.26 15.97h-44.53c3.15-9.28 11.92-15.97 22.26-15.97ZM266.92 21.6c-2.46 3.72-3.84 8.24-3.84 8.24-1.59 5.22-1.53 9.75-1.28 12.56v34.58h-6.4v16.8h6.4v61.13h18.08V93.78h19.6v-16.8h-19.6V46.8c0-4.1.23-7.33.69-9.72.04-.19.08-.38.13-.58.09-.4.19-.78.29-1.12 0-.01 0-.02.01-.03.14-.46.29-.88.46-1.24 2.34-5.72 7.95-9.75 14.51-9.75 1.21 0 2.39.15 3.52.41V8.2c-16.4-2.72-27.79 6.19-32.57 13.4ZM434.23 76.99v6.75a39.607 39.607 0 0 0-21.57-6.37c-21.97 0-39.78 17.81-39.78 39.78s17.81 39.78 39.78 39.78c7.95 0 15.36-2.34 21.57-6.37v4.36h18.2V76.99h-18.2Zm-21.27 63.72c-12.21 0-22.25-9.29-23.44-21.18-.08-.78-.12-1.58-.12-2.38s.04-1.6.12-2.38c1.19-11.89 11.23-21.18 23.44-21.18 13.01 0 23.56 10.55 23.56 23.56s-10.55 23.56-23.56 23.56Z"/></svg>